<svg width="74" height="74" viewBox="0 0 74 74" fill="none" xmlns="http://www.w3.org/2000/svg">
<path d="M37.0002 16.9584C33.6887 15.1515 29.0359 12.3334 24.6668 12.3334C18.1918 12.3334 12.3335 16.1783 12.3335 27.75C12.3335 42.8553 15.5895 53.6809 20.5691 60.2391C22.3358 62.5701 26.6432 61.8455 28.484 59.5115C29.7112 57.9534 31.0082 55.0745 32.3752 50.875C33.2755 48.4978 35.1255 46.2377 37.0002 46.25C38.8563 46.25 40.731 48.5225 41.6252 50.875C42.9921 55.0745 44.2892 57.9523 45.5163 59.5084C47.3571 61.8486 51.683 62.5701 53.4312 60.2391C58.4108 53.6809 61.6668 42.8584 61.6668 27.75C61.6668 16.2184 55.7838 12.3334 49.3335 12.3334C44.9459 12.3334 40.3302 15.1423 37.0002 16.9584ZM37.0002 16.9584L46.2502 21.5834" stroke="white" stroke-width="2" stroke-linecap="round" stroke-linejoin="round"/>
<path d="M60.196 42.952C61.2291 41.2554 61.7755 39.3073 61.7752 37.321C61.7752 31.3036 56.9062 26.431 50.8876 26.4286C44.8744 26.4304 40 31.3036 40 37.3198C40 43.3306 44.875 48.2032 50.8912 48.2032C52.9552 48.2032 54.8782 47.62 56.5216 46.6234L63.9274 54.0286L67.6 50.3542L60.196 42.952ZM50.89 44.0566C47.1688 44.0476 44.1604 41.0404 44.1538 37.327C44.1563 35.5411 44.8668 33.8291 46.1295 32.5662C47.3922 31.3032 49.1041 30.5924 50.89 30.5896C54.6094 30.5992 57.619 33.6064 57.6268 37.327C57.619 41.0362 54.6082 44.0476 50.89 44.0566Z" fill="white"/>
</svg>
